<svg xmlns="http://www.w3.org/2000/svg" viewBox="0 0 256 256" role="img" aria-labelledby="title desc">
  <title id="title">Simo Studio logo</title>
  <desc id="desc">A technology-themed S mark built from connected circuit paths.</desc>
  <defs>
    <linearGradient id="bg" x1="28" y1="24" x2="228" y2="232" gradientUnits="userSpaceOnUse">
      <stop offset="0" stop-color="#0f766e"/>
      <stop offset="0.52" stop-color="#2563eb"/>
      <stop offset="1" stop-color="#d9902f"/>
    </linearGradient>
    <linearGradient id="stroke" x1="62" y1="52" x2="194" y2="204" gradientUnits="userSpaceOnUse">
      <stop offset="0" stop-color="#ffffff"/>
      <stop offset="1" stop-color="#dff7f4"/>
    </linearGradient>
  </defs>
  <rect width="256" height="256" rx="44" fill="#111827"/>
  <path d="M42 96C54 56 86 36 128 36c36 0 66 15 86 45" fill="none" stroke="url(#bg)" stroke-width="18" stroke-linecap="round"/>
  <path d="M214 160c-12 40-44 60-86 60-36 0-66-15-86-45" fill="none" stroke="url(#bg)" stroke-width="18" stroke-linecap="round"/>
  <path d="M174 78H96c-22 0-38 14-38 34s16 34 38 34h64c22 0 38 14 38 34s-16 34-38 34H82" fill="none" stroke="url(#stroke)" stroke-width="24" stroke-linecap="round" stroke-linejoin="round"/>
  <path d="M64 112H30M226 180h-34M128 36V16M128 240v-20" fill="none" stroke="#67e8f9" stroke-width="8" stroke-linecap="round"/>
  <circle cx="30" cy="112" r="10" fill="#67e8f9"/>
  <circle cx="226" cy="180" r="10" fill="#fbbf24"/>
  <circle cx="128" cy="16" r="8" fill="#2dd4bf"/>
  <circle cx="128" cy="240" r="8" fill="#60a5fa"/>
</svg>
